# AST/ASF file generated using VICON BodyLanguage
# -----------------------------------------------
:version 1.10
:name VICON
:units
  mass 1.0
  length 0.45
  angle deg
:documentation
   .ast/.asf automatically generated from VICON data using
   VICON BodyBuilder and BodyLanguage model FoxedUp or BRILLIANT.MOD
:root
   order TX TY TZ RX RY RZ
   axis XYZ
   position 0 0 0  
   orientation 0 0 0 
:bonedata
  begin
     id 1 
     name lhipjoint
     direction 0.710188 -0.616876 0.339259 
     length 2.5669 
     axis 0 0 0  XYZ
  end
  begin
     id 2 
     name lfemur
     direction 0.34202 -0.939693 0  
     length 7.12796  
     axis 0 0 20  XYZ
    dof rx ry rz
    limits (-160.0 20.0)
           (-70.0 70.0)
           (-60.0 70.0)
  end
  begin
     id 3 
     name ltibia
     direction 0.34202 -0.939693 0   
     length 7.58108   
     axis 0 0 20   XYZ
    dof rx
    limits (-10.0 170.0)
  end
  begin
     id 4 
     name lfoot
     direction 0.0669471 -0.183936 0.980656   
     length 2.17365   
     axis -90 7.62852e-016 20   XYZ
    dof rx rz
    limits (-45.0 90.0)
           (-70.0 20.0)
  end
  begin
     id 5 
     name ltoes
     direction 1.53508e-011 -4.21705e-011 1   
     length 1.09427   
     axis -90 7.62852e-016 20   XYZ
    dof rx
    limits (-90.0 20.0)
  end
  begin
     id 6 
     name rhipjoint
     direction -0.700191 -0.625589 0.34405   
     length 2.53115  
     axis 0 0 0  XYZ 
  end
  begin
     id 7 
     name rfemur
     direction -0.34202 -0.939693 0   
     length 7.33006   
     axis 0 0 -20   XYZ
    dof rx ry rz
    limits (-160.0 20.0)
           (-70.0 70.0)
           (-70.0 60.0)
  end
  begin
     id 8 
     name rtibia
     direction -0.34202 -0.939693 0   
     length 7.64926   
     axis 0 0 -20   XYZ
    dof rx
    limits (-10.0 170.0)
 end
 begin
     id 9 
     name rfoot
     direction -0.0688927 -0.189281 0.979503   
     length 2.20493  
     axis -90 -7.62852e-016 -20   XYZ
    dof rx rz
    limits (-45.0 90.0)
           (-20.0 70.0)
  end
  begin
     id 10 
     name rtoes
     direction -1.53567e-011 -4.21933e-011 1   
     length 1.10919   
     axis -90 -7.62852e-016 -20   XYZ
    dof rx
    limits (-90.0 20.0)
  end
  begin
     id 11 
     name lowerback
     direction -0.0167868 0.989873 -0.140959   
     length 2.14596   
     axis 0 0 0   XYZ
    dof rx ry rz
    limits (-20.0 45.0)
           (-30.0 30.0)
           (-30.0 30.0)
  end
  begin
     id 12 
     name upperback
     direction 0.0129109 0.998033 0.0613525   
     length 2.10457   
     axis 0 0 0   XYZ
    dof rx ry rz
    limits (-20.0 45.0)
           (-30.0 30.0)
           (-30.0 30.0)
  end
  begin
     id 13 
     name thorax
     direction 0.0177047 0.991119 0.131797   
     length 2.17652   
     axis 0 0 0   XYZ
    dof rx ry rz
    limits (-20.0 45.0)
           (-30.0 30.0)
           (-30.0 30.0)
  end
  begin
     id 14 
     name lowerneck
     direction -0.0336893 0.997548 0.0613464   
     length 1.8912   
     axis 0 0 0   XYZ
    dof rx ry rz
    limits (-20.0 45.0)
           (-30.0 30.0)
           (-30.0 30.0)
  end
  begin
     id 15 
     name upperneck
     direction 0.0435909 0.997179 -0.0611028   
     length 1.8829   
     axis 0 0 0   XYZ
    dof rx ry rz
    limits (-20.0 45.0)
           (-30.0 30.0)
           (-30.0 30.0)
  end
  begin
     id 16
     name head
     direction 0.0175076 0.999444 -0.0283782  
     length 1.93197  
     axis 0 0 0   XYZ
    dof rx ry rz
    limits (-20.0 45.0)
           (-30.0 30.0)
           (-30.0 30.0)
  end
  begin
     id 17 
     name lclavicle
     direction 0.919164 0.389875 0.0559876  
     length 3.60004  
     axis 0 0 0   XYZ
    dof ry rz
    limits (-20.0 10.0)
           (0.0 20.0)
  end
  begin
     id 18 
     name lhumerus
     direction 1 -4.48958e-011 6.89191e-027   
     length 5.43301   
     axis 180 -30 -90   XYZ
    dof rx ry rz
    limits (-60.0 90.0)
           (-90.0 90.0)
           (-90.0 90.0)
  end
  begin
     id 19
     name lradius
     direction 1 -4.4897e-011 3.24727e-027   
     length 3.15936   
     axis 180 -30 -90   XYZ
    dof rx
    limits (-10.0 170.0)
  end
  begin
     id 20
     name lwrist
     direction 1 -4.4897e-011 9.00228e-027   
     length 1.57968   
     axis -6.29373e-015 90 90   XYZ
    dof ry
    limits (-180.0 0.0)
 end
  begin
     id 21 
     name lhand
     direction 1 -4.48968e-011 1.80042e-026   
     length 0.712827   
     axis -1.14882e-014 90 90   XYZ
    dof rx rz
    limits (-90.0 90.0)
           (-45.0 45.0)
  end
  begin
     id 22 
     name lfingers
     direction 1 -4.49019e-011 3.60267e-026   
     length 0.574699   
     axis -2.29769e-014 90 90   XYZ
    dof rx
    limits (0.0 90.0)
  end
  begin
     id 23
     name lthumb
     direction 0.707107 -6.3498e-011 0.707107   
     length 0.825157   
     axis -90 45 5.37419e-014   XYZ
    dof rx rz
    limits (-45.0 45.0)
           (-45.0 45.0)
  end
  begin
     id 24 
     name rclavicle
     direction -0.890334 0.455305 -0.00132111   
     length 3.51494  
     axis 0 0 0   XYZ 
    dof ry rz
    limits (-10.0 20.0)
           (-20.0 0.0)
  end
  begin
     id 25 
     name rhumerus
     direction -1 -4.48967e-011 5.07175e-028  
     length 5.34194   
     axis 180 30 90   XYZ
    dof rx ry rz
    limits (-90.0 60.0)
           (-90.0 90.0)
           (-90.0 90.0)
  end
  begin
     id 26 
     name rradius
     direction -1 -4.48955e-011 3.30467e-027   
     length 3.19351   
     axis 180 30 90   XYZ
    dof rx
    limits (-10.0 170.0)
  end
  begin
     id 27 
     name rwrist
     direction -1 -4.48968e-011 9.00208e-027   
     length 1.59676   
     axis -6.29373e-015 -90 -90   XYZ
    dof ry
    limits (-180.0 0.0)
  end
  begin
     id 28
     name rhand
     direction -1 -4.49e-011 1.80099e-026   
     length 0.743862   
     axis -1.14882e-014 -90 -90   XYZ
    dof rx rz
    limits (-90.0 90.0)
           (-45.0 45.0)
  end
  begin
     id 29
     name rfingers
     direction -1 -4.49009e-011 3.6023e-026   
     length 0.599721   
     axis -2.29769e-014 -90 -90   XYZ
    dof rx
    limits (0.0 90.0)
  end
  begin
     id 30
     name rthumb
     direction -0.707107 -6.35025e-011 0.707107   
     length 0.861083   
     axis -90 -45 -5.37419e-014   XYZ
    dof rx rz
    limits (-45.0 45.0)
           (-45.0 45.0)
  end
:hierarchy
  begin
    root lhipjoint rhipjoint lowerback
    lhipjoint lfemur
    lfemur ltibia
    ltibia lfoot
    lfoot ltoes
    rhipjoint rfemur
    rfemur rtibia
    rtibia rfoot
    rfoot rtoes
    lowerback upperback
    upperback thorax
    thorax lowerneck lclavicle rclavicle
    lowerneck upperneck
    upperneck head
    lclavicle lhumerus
    lhumerus lradius
    lradius lwrist
    lwrist lhand lthumb
    lhand lfingers
    rclavicle rhumerus
    rhumerus rradius
    rradius rwrist
    rwrist rhand rthumb
    rhand rfingers
  end

#!OML:ASF H:\Martial Arts Walks\Project 1\Capture day 1\Session 1\male.ASF
:FULLY-SPECIFIED
:DEGREES
1
root -0.821616 11.5905 11.3362 8.64008 1.63186 -1.76511
lowerback 18.4207 1.68717 -2.66201
upperback -3.752 1.74154 0.81101
thorax -14.8008 1.07813 1.89867
lowerneck -8.50248 -3.36246 -5.86245
upperneck 6.89031 -4.28902 5.59697
head 3.68794 -2.01071 2.40879
rclavicle -1.2424e-015 -1.26725e-014
rhumerus 38.9811 -2.51896 -64.216
rradius 94.7329
rwrist 20.8882
rhand 1.34332 -13.9956
rfingers 7.12502
rthumb 26.8764 -42.1051
lclavicle -1.2424e-015 -1.26725e-014
lhumerus 40.8978 -4.56151 87.7591
lradius 87.8242
lwrist -35.8891
lhand -10.4328 2.03617
lfingers 7.12502
lthumb 15.5669 31.4297
rfemur -71.812 -5.37192 21.2058
rtibia 107.282
rfoot -33.3037 -17.7457
rtoes -13.8626
lfemur -72.4264 10.8741 -17.8698
ltibia 106.381
lfoot -31.2787 17.107
ltoes -13.1898
2
root -0.817799 11.5931 11.336 8.66026 1.60385 -1.78228
lowerback 18.4239 1.67766 -2.64058
upperback -3.73935 1.7351 0.819979
thorax -14.7867 1.07356 1.8987
lowerneck -8.54459 -3.35485 -5.88401
upperneck 6.88773 -4.27586 5.61887
head 3.69426 -2.00309 2.41925
rclavicle -1.51698e-014 2.43511e-015
rhumerus 39.04 -2.53178 -64.2358
rradius 94.7147
rwrist 20.8767
rhand 1.35686 -13.969
rfingers 7.12502
rthumb 26.8894 -42.0765
lclavicle -1.51698e-014 2.43511e-015
lhumerus 40.9686 -4.52399 87.7546
lradius 87.8013
lwrist -35.8786
lhand -10.3471 2.02866
lfingers 7.12502
lthumb 15.6494 31.4157
rfemur -71.8204 -5.34182 21.204
rtibia 107.25
rfoot -33.2766 -17.7698
rtoes -13.9009
lfemur -72.4361 10.8985 -17.8781
ltibia 106.361
lfoot -31.2561 17.1474
ltoes -13.4724
3
root -0.81416 11.5969 11.3365 8.6791 1.60369 -1.73456
lowerback 18.426 1.66739 -2.67304
upperback -3.7349 1.71174 0.808006
thorax -14.782 1.06493 1.91087
lowerneck -8.54659 -3.35506 -5.87466
upperneck 6.88156 -4.27594 5.60775
head 3.69228 -2.0034 2.41432
rclavicle 4.58447e-015 -5.41688e-015
rhumerus 39.0724 -2.55361 -64.2456
rradius 94.7026
rwrist 20.8537
rhand 1.37191 -13.9945
rfingers 7.12502
rthumb 26.9038 -42.0998
lclavicle 4.58447e-015 -5.41688e-015
lhumerus 41.0426 -4.51565 87.7288
lradius 87.7742
lwrist -35.8652
lhand -10.351 1.99942
lfingers 7.12502
lthumb 15.6457 31.3868
rfemur -71.8218 -5.37189 21.1333
rtibia 107.226
rfoot -33.2557 -17.7757
rtoes -13.9208
lfemur -72.373 10.8613 -17.9306
ltibia 106.318
lfoot -31.3679 17.0258
ltoes -13.8429
4
root -0.807782 11.6021 11.34 8.65229 1.4988 -1.74129
lowerback 18.4156 1.68973 -2.65081
upperback -3.70378 1.74614 0.799277
thorax -14.7395 1.07729 1.87803
lowerneck -8.56601 -3.35099 -5.86524
upperneck 6.88133 -4.27093 5.6113
head 3.69498 -2.0002 2.41394
rclavicle -1.42504e-014 -5.86415e-015
rhumerus 39.1126 -2.57819 -64.2719
rradius 94.6934
rwrist 20.8828
rhand 1.39797 -13.9947
rfingers 7.12502
rthumb 26.9287 -42.0961
lclavicle -1.42504e-014 -5.86415e-015
lhumerus 41.092 -4.51084 87.7164
lradius 87.7733
lwrist -35.8911
lhand -10.3595 1.98298
lfingers 7.12502
lthumb 15.6374 31.371
rfemur -71.7466 -5.28543 21.0865
rtibia 107.174
rfoot -33.255 -17.7626
rtoes -13.9316
lfemur -72.2962 10.9552 -17.9682
ltibia 106.288
lfoot -31.3686 17.0717
ltoes -13.8153
5
root -0.804187 11.6043 11.3396 8.65833 1.48561 -1.73228
lowerback 18.4336 1.68405 -2.64925
upperback -3.69508 1.73823 0.798137
thorax -14.7395 1.07334 1.87808
lowerneck -8.57074 -3.34868 -5.8628
upperneck 6.87493 -4.26777 5.61279
head 3.69362 -1.99845 2.41416
rclavicle 2.74074e-014 4.47266e-016
rhumerus 39.149 -2.59653 -64.285
rradius 94.679
rwrist 20.8934
rhand 1.39143 -13.9907
rfingers 7.12502
rthumb 26.9224 -42.0931
lclavicle 2.74074e-014 4.47266e-016
lhumerus 41.1426 -4.50379 87.7034
lradius 87.764
lwrist -35.9014
lhand -10.3577 1.97745
lfingers 7.12502
lthumb 15.6392 31.3653
rfemur -71.7411 -5.28124 21.0539
rtibia 107.152
rfoot -33.2428 -17.7604
rtoes -13.939
lfemur -72.2897 10.9598 -18.0012
ltibia 106.267
lfoot -31.3629 17.0713
ltoes -14.0033
6
root -0.801106 11.6054 11.3384 8.6663 1.48629 -1.72666
lowerback 18.4587 1.67585 -2.64608
upperback -3.69095 1.72758 0.800175
thorax -14.7491 1.06833 1.88152
lowerneck -8.5648 -3.34795 -5.85912
upperneck 6.86726 -4.26707 5.61063
head 3.69015 -1.99822 2.41306
rclavicle -1.27968e-014 -1.43125e-014
rhumerus 39.1788 -2.61186 -64.2916
rradius 94.6651
rwrist 20.9058
rhand 1.36134 -13.9854
rfingers 7.12502
rthumb 26.8936 -42.0923
lclavicle -1.27968e-014 -1.43125e-014
lhumerus 41.1841 -4.50247 87.6928
lradius 87.7574
lwrist -35.9123
lhand -10.3717 1.97751
lfingers 7.12502
lthumb 15.6257 31.3664
rfemur -71.7469 -5.28492 21.0293
rtibia 107.137
rfoot -33.2297 -17.7561
rtoes -13.9509
lfemur -72.3016 10.9597 -18.0298
ltibia 106.255
lfoot -31.3484 17.071
ltoes -14.173
7
root -0.798276 11.606 11.3371 8.67226 1.49147 -1.72842
lowerback 18.4808 1.66577 -2.64113
upperback -3.68675 1.71575 0.808039
thorax -14.7569 1.06298 1.891
lowerneck -8.55634 -3.35272 -5.85036
upperneck 6.86361 -4.27347 5.59535
head 3.6875 -2.00202 2.40668
rclavicle 8.27441e-015 -6.36111e-015
rhumerus 39.2038 -2.61718 -64.2943
rradius 94.6526
rwrist 20.9252
rhand 1.30918 -13.9787
rfingers 7.12502
rthumb 26.8437 -42.0932
lclavicle 8.27441e-015 -6.36111e-015
lhumerus 41.2167 -4.4982 87.6869
lradius 87.752
lwrist -35.9301
lhand -10.3914 1.98493
lfingers 7.12502
lthumb 15.6067 31.3753
rfemur -71.7524 -5.28713 21.0146
rtibia 107.129
rfoot -33.2218 -17.7536
rtoes -13.9579
lfemur -72.321 10.9647 -18.0507
ltibia 106.251
lfoot -31.3293 17.0732
ltoes -14.3112
8
root -0.795952 11.6056 11.3354 8.68215 1.50835 -1.73554
lowerback 18.5055 1.65351 -2.63331
upperback -3.68703 1.70221 0.820105
thorax -14.7715 1.05699 1.90407
lowerneck -8.54025 -3.35823 -5.84613
upperneck 6.86058 -4.28092 5.58226
head 3.68399 -2.00647 2.40175
rclavicle 1.51573e-014 -1.00386e-014
rhumerus 39.2217 -2.62006 -64.29
rradius 94.6424
rwrist 20.9395
rhand 1.2372 -13.9679
rfingers 7.12502
rthumb 26.7748 -42.093
lclavicle 1.51573e-014 -1.00386e-014
lhumerus 41.241 -4.49937 87.686
lradius 87.746
lwrist -35.9378
lhand -10.4214 1.99888
lfingers 7.12502
lthumb 15.5778 31.3915
rfemur -71.7701 -5.29458 21.0105
rtibia 107.128
rfoot -33.2139 -17.7503
rtoes -13.9562
lfemur -72.3562 10.9669 -18.0638
ltibia 106.254
lfoot -31.3087 17.0686
ltoes -14.4218
9
root -0.793228 11.6053 11.3347 8.68989 1.50896 -1.74828
lowerback 18.5169 1.64686 -2.62166
upperback -3.68617 1.69768 0.833468
thorax -14.7772 1.05476 1.91386
lowerneck -8.52143 -3.36404 -5.84432
upperneck 6.86318 -4.28898 5.57093
head 3.68185 -2.01123 2.39772
rclavicle -3.76448e-015 -3.77691e-015
rhumerus 39.2321 -2.62011 -64.2806
rradius 94.6373
rwrist 20.945
rhand 1.16145 -13.9588
rfingers 7.12502
rthumb 26.7024 -42.0949
lclavicle -3.76448e-015 -3.77691e-015
lhumerus 41.2556 -4.50397 87.6893
lradius 87.7402
lwrist -35.9394
lhand -10.4595 2.01394
lfingers 7.12502
lthumb 15.5411 31.4094
rfemur -71.782 -5.28512 21.0091
rtibia 107.126
rfoot -33.2055 -17.7535
rtoes -13.9707
lfemur -72.3809 10.9886 -18.0726
ltibia 106.261
lfoot -31.3066 17.0519
ltoes -14.4739
10
root -0.790525 11.6049 11.3343 8.69828 1.50957 -1.76362
lowerback 18.5245 1.64119 -2.60702
upperback -3.6853 1.69541 0.847631
thorax -14.7806 1.05332 1.92221
lowerneck -8.50665 -3.36894 -5.84753
upperneck 6.87232 -4.29599 5.56775
head 3.6826 -2.01513 2.39699
rclavicle 1.22253e-014 4.47266e-015
rhumerus 39.2376 -2.62309 -64.2671
rradius 94.637
rwrist 20.9433
rhand 1.09526 -13.9513
rfingers 7.12502
rthumb 26.639 -42.0971
lclavicle 1.22253e-014 4.47266e-015
lhumerus 41.2664 -4.51452 87.6958
lradius 87.7342
lwrist -35.9343
lhand -10.5004 2.03262
lfingers 7.12502
lthumb 15.5017 31.4312
rfemur -71.7943 -5.27501 21.0115
rtibia 107.126
rfoot -33.1978 -17.7596
rtoes -13.976
lfemur -72.4034 11.011 -18.0768
ltibia 106.271
lfoot -31.3143 17.0287
ltoes -14.4743
11
root -0.787926 11.604 11.3338 8.71201 1.51256 -1.77792
lowerback 18.5295 1.63591 -2.59216
upperback -3.68715 1.69364 0.860694
thorax -14.7857 1.05209 1.92905
lowerneck -8.49599 -3.37153 -5.85715
upperneck 6.88855 -4.3003 5.5773
head 3.68644 -2.01718 2.40128
rclavicle -5.28022e-016 -9.74045e-015
rhumerus 39.2378 -2.62972 -64.2499
rradius 94.6413
rwrist 20.9332
rhand 1.0449 -13.9492
rfingers 7.12502
rthumb 26.5908 -42.1023
lclavicle -5.28022e-016 -9.74045e-015
lhumerus 41.2715 -4.53135 87.7039
lradius 87.7319
lwrist -35.9207
lhand -10.5347 2.04677
lfingers 7.12502
lthumb 15.4687 31.4479
rfemur -71.8169 -5.26816 21.0149
rtibia 107.13
rfoot -33.1872 -17.7693
rtoes -13.9921
lfemur -72.4343 11.0289 -18.081
ltibia 106.283
lfoot -31.3238 17
ltoes -14.4482
12
root -0.78525 11.603 11.3337 8.72624 1.51528 -1.79082
lowerback 18.5317 1.63135 -2.57608
upperback -3.68894 1.69289 0.871472
thorax -14.7889 1.05105 1.93232
lowerneck -8.48868 -3.37261 -5.87004
upperneck 6.90872 -4.30317 5.59797
head 3.69226 -2.01802 2.40955
rclavicle -4.53478e-015 8.79622e-015
rhumerus 39.2345 -2.64025 -64.2292
rradius 94.6495
rwrist 20.9153
rhand 1.01338 -13.9531
rfingers 7.12502
rthumb 26.5607 -42.1107
lclavicle -4.53478e-015 8.79622e-015
lhumerus 41.2736 -4.55384 87.7108
lradius 87.7331
lwrist -35.9043
lhand -10.5621 2.05141
lfingers 7.12502
lthumb 15.4423 31.4546
rfemur -71.8384 -5.26504 21.0172
rtibia 107.135
rfoot -33.1855 -17.7775
rtoes -13.9894
lfemur -72.4626 11.0433 -18.0858
ltibia 106.297
lfoot -31.3382 16.9705
ltoes -14.4134
13
root -0.782477 11.6023 11.3342 8.7344 1.51617 -1.80142
lowerback 18.5326 1.62741 -2.56167
upperback -3.68755 1.69234 0.880571
thorax -14.7875 1.05006 1.93462
lowerneck -8.48998 -3.37425 -5.87751
upperneck 6.93615 -4.30711 5.61687
head 3.70161 -2.01917 2.41617
rclavicle -1.08959e-014 1.68967e-014
rhumerus 39.2296 -2.65031 -64.2061
rradius 94.6588
rwrist 20.897
rhand 0.996218 -13.9625
rfingers 7.12502
rthumb 26.5442 -42.1227
lclavicle -1.08959e-014 1.68967e-014
lhumerus 41.2738 -4.57846 87.7155
lradius 87.7413
lwrist -35.8891
lhand -10.5714 2.05135
lfingers 7.12502
lthumb 15.4334 31.4552
rfemur -71.8471 -5.26495 21.0155
rtibia 107.138
rfoot -33.1885 -17.7849
rtoes -13.9887
lfemur -72.4765 11.0556 -18.0916
ltibia 106.307
lfoot -31.3557 16.9492
ltoes -14.3873
